#!OML:ASF E:\id_vita\Project 1\Capture day 1\Session 1\Male1.ASF
:FULLY-SPECIFIED
:DEGREES
648
root -5.278 13.4491 -8.88173 61.5001 86.468 15.3599
lowerback 30.5736 0.998725 -7.92799
upperback 5.9446 -0.617386 0.446311
thorax -9.20927 0.0971497 4.91305
lowerneck -10.2435 1.01648 0.0708788
upperneck 0.298216 1.26956 5.73885
head 1.82724 0.845899 1.88813
rclavicle 3.4191e-014 5.74488e-014
rhumerus 66.3247 11.203 -60.8414
rradius 19.7346
rwrist 25.0745
rhand -46.3413 265.628
rfingers 7.12502
rthumb -19.074 65.2873
lclavicle 3.4191e-014 5.74488e-014
lhumerus 71.6769 1.02179 89.5863
lradius 11.2879
lwrist -74.2687
lhand -37.2082 76.9587
lfingers 7.12502
lthumb -10.2755 -106.688
rfemur -28.5153 1.1696 13.6424
rtibia 60.2585
rfoot 5.08699 -4.86654
rtoes -2.29673
lfemur -66.853 10.6127 -32.5192
ltibia 78.8818
lfoot -47.056 -8.60234
ltoes 28.4015
649
root -5.17852 13.4699 -8.89258 69.726 86.4653 23.5586
lowerback 30.6446 0.953409 -7.88155
upperback 5.9815 -0.645674 0.552598
thorax -9.19585 0.0841854 5.01077
lowerneck -10.0791 0.988374 0.204473
upperneck -0.013317 1.2434 5.43513
head 1.69554 0.816523 1.75627
rclavicle -3.97569e-016 3.8763e-014
rhumerus 66.3242 11.0649 -60.0644
rradius 19.8316
rwrist 24.3925
rhand -44.7863 262.386
rfingers 7.12502
rthumb -17.578 68.389
lclavicle -3.97569e-016 3.8763e-014
lhumerus 71.5811 0.805247 90.0905
lradius 11.4374
lwrist -74.4917
lhand -37.0419 76.7316
lfingers 7.12502
lthumb -10.115 -106.468
rfemur -29.7935 0.484635 13.483
rtibia 62.0992
rfoot 3.80728 -3.79586
rtoes -7.17645
lfemur -66.0223 10.4346 -32.9144
ltibia 78.03
lfoot -47.0054 -8.83771
ltoes 28.6302
650
root -5.07349 13.4886 -8.92575 101.575 86.4228 55.5727
lowerback 31.0411 0.120403 -7.0257
upperback 6.01158 -1.4235 0.585178
thorax -9.25679 -0.279977 4.85996
lowerneck -9.87706 0.997648 0.467792
upperneck -0.269955 1.25057 5.08348
head 1.57505 0.803687 1.58905
rclavicle 1.51076e-014 -1.70955e-014
rhumerus 66.2003 11.3932 -58.7234
rradius 20.0694
rwrist 24.741
rhand -47.0746 263.222
rfingers 7.12502
rthumb -19.779 67.7643
lclavicle 1.51076e-014 -1.70955e-014
lhumerus 71.4932 0.786579 90.917
lradius 11.5249
lwrist -75.1676
lhand -36.9931 76.8728
lfingers 7.12502
lthumb -10.068 -106.612
rfemur -30.5487 -1.53043 13.2443
rtibia 63.9322
rfoot 2.12199 -3.07041
rtoes -13.0201
lfemur -64.728 8.86103 -33.3604
ltibia 77.0671
lfoot -46.7116 -9.12906
ltoes 28.9501
651
root -4.97562 13.5032 -8.92701 105.614 86.1019 59.5635
lowerback 31.0529 0.121633 -7.19773
upperback 6.02274 -1.46714 0.62827
thorax -9.23624 -0.295726 5.01273
lowerneck -9.89863 0.990316 0.840923
upperneck -0.215477 1.19997 4.81748
head 1.59827 0.772681 1.43659
rclavicle 2.22639e-014 1.43125e-014
rhumerus 65.972 10.4101 -61.4183
rradius 19.539
rwrist 25.8303
rhand -44.0943 261.095
rfingers 7.12502
rthumb -16.9119 69.6218
lclavicle 2.22639e-014 1.43125e-014
lhumerus 71.454 0.877792 91.9343
lradius 11.5285
lwrist -76.0514
lhand -37.0701 76.9715
lfingers 7.12502
lthumb -10.1422 -106.707
rfemur -31.959 -1.94533 13.1129
rtibia 65.8171
rfoot 0.238522 -2.18759
rtoes -17.9838
lfemur -63.9427 8.88026 -33.7577
ltibia 76.2366
lfoot -46.5431 -9.51125
ltoes 28.9233
652
root -4.87915 13.5181 -8.92745 109.562 85.8342 63.511
lowerback 31.0846 0.0860293 -7.30804
upperback 6.1257 -1.5229 0.707997
thorax -9.12253 -0.322089 5.17362
lowerneck -10.1106 0.954093 1.23614
upperneck -0.220212 1.10914 4.4573
head 1.63676 0.720913 1.25073
rclavicle 2.66371e-014 1.12313e-014
rhumerus 65.9313 10.2546 -61.7118
rradius 19.5659
rwrist 26.7051
rhand -45.2076 262.963
rfingers 7.12502
rthumb -17.9834 67.8482
lclavicle 2.66371e-014 1.12313e-014
lhumerus 71.5126 0.892909 92.4711
lradius 11.5628
lwrist -76.3738
lhand -37.1441 76.8049
lfingers 7.12502
lthumb -10.2136 -106.537
rfemur -33.3558 -2.51964 13.098
rtibia 67.7064
rfoot -2.05454 -1.1293
rtoes -24.4102
lfemur -63.126 8.8484 -34.063
ltibia 75.4154
lfoot -46.5655 -9.45551
ltoes 28.0378
653
root -4.77165 13.5309 -8.91931 106.146 85.8098 59.9565
lowerback 30.4848 0.272999 -7.63544
upperback 6.67297 -1.303 0.628483
thorax -8.94011 -0.208309 5.584
lowerneck -10.5079 0.901029 1.47763
upperneck -0.0783085 0.997287 4.21247
head 1.75667 0.665812 1.13163
rclavicle 6.32135e-014 6.54995e-014
rhumerus 65.8808 9.68843 -63.2242
rradius 19.4977
rwrist 27.6111
rhand -44.2006 261.146
rfingers 7.12502
rthumb -17.0143 69.579
lclavicle 6.32135e-014 6.54995e-014
lhumerus 71.6378 1.03167 93.3531
lradius 11.6336
lwrist -77.0803
lhand -37.0518 77.0493
lfingers 7.12502
lthumb -10.1247 -106.786
rfemur -34.9674 -2.43548 13.3266
rtibia 69.6178
rfoot -3.49495 -1.41514
rtoes -25.154
lfemur -62.5587 9.55181 -34.264
ltibia 74.6502
lfoot -46.5727 -9.69316
ltoes 28.1617
654
root -4.67144 13.5489 -8.92177 109.392 85.6029 63.1964
lowerback 30.4666 0.240256 -7.65382
upperback 6.76944 -1.32057 0.743287
thorax -8.81235 -0.220467 5.73002
lowerneck -10.7063 0.824027 1.45765
upperneck 0.017975 0.886174 4.16631
head 1.82584 0.61219 1.11829
rclavicle -1.19271e-014 2.28602e-015
rhumerus 65.8566 9.87064 -62.5926
rradius 19.7061
rwrist 28.1717
rhand -45.6676 262.924
rfingers 7.12502
rthumb -18.4259 67.9292
lclavicle -1.19271e-014 2.28602e-015
lhumerus 71.721 1.19193 94.5308
lradius 11.6401
lwrist -78.1483
lhand -36.9312 77.0438
lfingers 7.12502
lthumb -10.0082 -106.786
rfemur -36.3556 -2.89114 13.3574
rtibia 71.4817
rfoot -4.75411 -2.37909
rtoes -24.6939
lfemur -61.7091 9.49647 -34.483
ltibia 73.8377
lfoot -46.4891 -9.43682
ltoes 28.485
655
root -4.58788 13.5693 -8.95257 113.881 85.1612 67.5193
lowerback 30.4045 0.00168407 -7.34755
upperback 6.81946 -1.51437 0.730074
thorax -8.70908 -0.319475 5.60323
lowerneck -10.5743 0.766639 1.11935
upperneck -0.314183 0.866044 4.42994
head 1.69301 0.603099 1.25573
rclavicle -2.14687e-014 -5.01931e-015
rhumerus 65.9606 9.86626 -62.0504
rradius 19.5861
rwrist 28.8655
rhand -47.0709 264.215
rfingers 7.12502
rthumb -19.7754 66.7706
lclavicle -2.14687e-014 -5.01931e-015
lhumerus 71.804 1.1813 95.0108
lradius 11.6506
lwrist -78.5296
lhand -37.1668 76.8222
lfingers 7.12502
lthumb -10.2356 -106.553
rfemur -37.9636 -3.91672 13.023
rtibia 73.3689
rfoot -3.90809 -9.16516
rtoes -11.2862
lfemur -60.9731 8.98359 -35.0057
ltibia 73.015
lfoot -46.7516 -8.76797
ltoes 26.7866
656
root -4.48437 13.5789 -8.92694 113.611 85.2651 67.3707
lowerback 30.3666 0.218421 -7.70028
upperback 6.98777 -1.30024 0.954682
thorax -8.50575 -0.223065 5.98422
lowerneck -10.653 0.80646 1.25316
upperneck -0.31453 0.905152 4.31116
head 1.70612 0.620996 1.19703
rclavicle 9.93923e-016 5.26779e-015
rhumerus 66.152 10.0135 -61.3721
rradius 19.6786
rwrist 28.526
rhand -48.6921 267.349
rfingers 7.12502
rthumb -21.3333 63.8054
lclavicle 9.93923e-016 5.26779e-015
lhumerus 71.8739 1.16651 95.3175
lradius 11.6839
lwrist -78.6951
lhand -37.4829 76.9698
lfingers 7.12502
lthumb -10.5405 -106.685
rfemur -39.3493 -3.68343 13.4789
rtibia 75.2201
rfoot -5.76307 -10.9446
rtoes -4.03618
lfemur -60.1047 9.35212 -34.7729
ltibia 72.2038
lfoot -47.5924 -8.871
ltoes 22.8232
657
root -4.39499 13.5992 -8.93173 114.473 84.9041 68.2464
lowerback 30.6616 0.238514 -7.91066
upperback 6.68998 -1.36175 1.21759
thorax -8.31957 -0.274683 5.96791
lowerneck -10.4963 0.831806 1.42513
upperneck -0.375672 0.929386 4.07275
head 1.65757 0.622935 1.08953
rclavicle 5.52621e-014 -1.74434e-014
rhumerus 66.3611 9.39945 -62.9424
rradius 19.2573
rwrist 28.5651
rhand -44.9103 263.368
rfingers 7.12502
rthumb -17.6973 67.4172
lclavicle 5.52621e-014 -1.74434e-014
lhumerus 71.9223 1.33748 96.2419
lradius 11.7422
lwrist -79.4949
lhand -37.3076 76.9531
lfingers 7.12502
lthumb -10.3714 -106.677
rfemur -40.8978 -4.2429 13.3245
rtibia 77.0746
rfoot -7.77124 -12.3505
rtoes -1.7462
lfemur -59.206 9.22309 -35.1241
ltibia 71.3037
lfoot -47.5368 -8.83347
ltoes 23.3925
658
root -4.29551 13.6186 -8.94179 112.503 84.4722 66.2535
lowerback 30.5696 0.351338 -8.25576
upperback 6.78868 -1.30655 1.21483
thorax -8.16717 -0.251483 6.12771
lowerneck -10.5725 0.789384 1.52924
upperneck -0.301233 0.858083 3.79609
head 1.6967 0.58021 0.981352
rclavicle -4.94974e-014 -6.10766e-014
rhumerus 66.4576 8.64809 -64.6674
rradius 18.9256
rwrist 28.8956
rhand -41.8419 261.169
rfingers 7.12502
rthumb -14.7428 69.3751
lclavicle -4.94974e-014 -6.10766e-014
lhumerus 71.9559 1.45202 97.2962
lradius 11.8502
lwrist -80.4809
lhand -36.7803 77.028
lfingers 7.12502
lthumb -9.86269 -106.777
rfemur -42.5242 -4.61856 13.0627
rtibia 78.8977
rfoot -9.87846 -12.7049
rtoes -0.256036
lfemur -58.3068 9.38226 -35.6426
ltibia 70.3955
lfoot -47.6261 -9.00808
ltoes 24.3602
659
root -4.2017 13.6391 -8.94849 119.664 84.1188 73.7508
lowerback 31.1349 0.0880187 -7.90735
upperback 6.8833 -1.52675 1.37
thorax -8.27383 -0.346822 6.18248
lowerneck -10.4805 0.72419 1.50616
upperneck -0.446806 0.784023 3.67197
head 1.63325 0.535671 0.940088
rclavicle 6.55989e-015 1.73937e-015
rhumerus 66.6257 8.26124 -65.2583
rradius 18.7293
rwrist 28.8712
rhand -40.6908 261.651
rfingers 7.12502
rthumb -13.6336 68.8153
lclavicle 6.55989e-015 1.73937e-015
lhumerus 72.0037 1.41758 97.866
lradius 11.9065
lwrist -80.8836
lhand -36.6364 77.2247
lfingers 7.12502
lthumb -9.72385 -106.98
rfemur -43.6539 -5.60128 13.2668
rtibia 80.6523
rfoot -11.8647 -11.941
rtoes 0.0494625
lfemur -56.9395 8.55885 -35.4673
ltibia 69.4094
lfoot -47.564 -9.12388
ltoes 25.527
660
root -4.09438 13.6521 -8.94364 116.831 84.3065 71.0028
lowerback 31.0304 0.340487 -8.10537
upperback 7.04236 -1.23557 1.50646
thorax -8.09174 -0.220934 6.33075
lowerneck -10.3458 0.667328 1.5914
upperneck -0.642523 0.71212 3.546
head 1.54593 0.491652 0.879287
rclavicle -1.19271e-015 1.96921e-014
rhumerus 66.8164 8.22436 -64.6919
rradius 18.5123
rwrist 28.9906
rhand -39.8283 258.805
rfingers 7.12502
rthumb -12.8022 71.6074
lclavicle -1.19271e-015 1.96921e-014
lhumerus 72.1396 1.42877 98.5608
lradius 11.8344
lwrist -81.43
lhand -36.7956 77.0609
lfingers 7.12502
lthumb -9.87749 -106.809
rfemur -45.2179 -5.30364 13.6253
rtibia 82.338
rfoot -13.3872 -12.6557
rtoes 2.70427
lfemur -55.9762 8.84894 -35.1978
ltibia 68.4777
lfoot -47.7001 -9.2305
ltoes 26.0893
